<?xml version="1.0" encoding="UTF-8"?>
<!DOCTYPE svg PUBLIC "-//W3C//DTD SVG 1.1//EN" "http://www.w3.org/Graphics/SVG/1.1/DTD/svg11.dtd">
<svg xmlns="http://www.w3.org/2000/svg" version="1.1" width="589px" height="562px" style="shape-rendering:geometricPrecision; text-rendering:geometricPrecision; image-rendering:optimizeQuality; fill-rule:evenodd; clip-rule:evenodd" xmlns:xlink="http://www.w3.org/1999/xlink">
<g><path style="opacity:1" fill="#fefefe" d="M -0.5,-0.5 C 195.833,-0.5 392.167,-0.5 588.5,-0.5C 588.5,186.833 588.5,374.167 588.5,561.5C 392.167,561.5 195.833,561.5 -0.5,561.5C -0.5,374.167 -0.5,186.833 -0.5,-0.5 Z"/></g>
<g><path style="opacity:1" fill="#fad1d5" d="M 55.5,135.5 C 59.3112,134.355 63.3112,134.188 67.5,135C 69.5503,135.416 70.8836,136.583 71.5,138.5C 66.5097,135.93 61.1764,134.93 55.5,135.5 Z"/></g>
<g><path style="opacity:1" fill="#b8b8b8" d="M 406.5,137.5 C 398.648,137.175 390.982,137.508 383.5,138.5C 383.167,138.5 382.833,138.5 382.5,138.5C 382.5,138.167 382.5,137.833 382.5,137.5C 390.5,136.167 398.5,136.167 406.5,137.5 Z"/></g>
<g><path style="opacity:1" fill="#838383" d="M 382.5,138.5 C 382.833,138.5 383.167,138.5 383.5,138.5C 383.5,172.5 383.5,206.5 383.5,240.5C 382.209,240.737 381.209,240.404 380.5,239.5C 382.493,206.183 383.16,172.517 382.5,138.5 Z"/></g>
<g><path style="opacity:1" fill="#686868" d="M 406.5,137.5 C 406.5,213.167 406.5,288.833 406.5,364.5C 398.5,364.5 390.5,364.5 382.5,364.5C 382.808,362.076 382.474,359.743 381.5,357.5C 377.224,360.471 372.558,362.637 367.5,364C 351.5,364.667 335.5,364.667 319.5,364C 305.214,359.708 293.714,351.541 285,339.5C 280.908,331.459 277.574,323.125 275,314.5C 269.941,288.737 276.108,266.237 293.5,247C 312.196,229.877 334.196,224.211 359.5,230C 366.334,232.588 373.001,235.421 379.5,238.5C 379.5,239.167 379.833,239.5 380.5,239.5C 381.209,240.404 382.209,240.737 383.5,240.5C 383.5,206.5 383.5,172.5 383.5,138.5C 390.982,137.508 398.648,137.175 406.5,137.5 Z"/></g>
<g><path style="opacity:1" fill="#dd6a7a" d="M 55.5,135.5 C 61.1764,134.93 66.5097,135.93 71.5,138.5C 71.5,138.833 71.5,139.167 71.5,139.5C 71.5,139.833 71.5,140.167 71.5,140.5C 66.3706,136.981 60.7039,135.814 54.5,137C 51.9979,138.337 49.9979,140.171 48.5,142.5C 47.8333,150.99 47.1666,159.324 46.5,167.5C 46.3336,158.494 46.5002,149.494 47,140.5C 49.0287,137.404 51.862,135.738 55.5,135.5 Z"/></g>
<g><path style="opacity:1" fill="#f0f0f0" d="M 382.5,137.5 C 382.5,137.833 382.5,138.167 382.5,138.5C 383.16,172.517 382.493,206.183 380.5,239.5C 379.833,239.5 379.5,239.167 379.5,238.5C 381.165,205.012 382.165,171.346 382.5,137.5 Z"/></g>
<g><path style="opacity:1" fill="#e68c9a" d="M 71.5,139.5 C 72.2216,139.918 72.7216,140.584 73,141.5C 73.4983,144.817 73.665,148.15 73.5,151.5C 70.8333,151.5 68.1667,151.5 65.5,151.5C 65.5,150.167 65.5,148.833 65.5,147.5C 66.404,148.209 66.7373,149.209 66.5,150.5C 68.5,150.5 70.5,150.5 72.5,150.5C 72.5405,147.119 72.2071,143.786 71.5,140.5C 71.5,140.167 71.5,139.833 71.5,139.5 Z"/></g>
<g><path style="opacity:1" fill="#f1a7b2" d="M 59.5,144.5 C 58.8783,145.627 58.045,146.627 57,147.5C 56.5004,154.158 56.3337,160.825 56.5,167.5C 56.1667,167.5 55.8333,167.5 55.5,167.5C 55.3337,160.492 55.5004,153.492 56,146.5C 56.8159,145.177 57.9826,144.511 59.5,144.5 Z"/></g>
<g><path style="opacity:1" fill="#ed5468" d="M 71.5,140.5 C 72.2071,143.786 72.5405,147.119 72.5,150.5C 70.5,150.5 68.5,150.5 66.5,150.5C 66.7373,149.209 66.404,148.209 65.5,147.5C 64.3126,145.025 62.3126,144.025 59.5,144.5C 57.9826,144.511 56.8159,145.177 56,146.5C 55.5004,153.492 55.3337,160.492 55.5,167.5C 57.9479,168.473 60.6146,168.806 63.5,168.5C 63.5,171.167 63.5,173.833 63.5,176.5C 60.9407,176.198 58.6074,176.532 56.5,177.5C 54.5186,190.458 53.8519,203.791 54.5,217.5C 52.5,217.5 50.5,217.5 48.5,217.5C 49.1481,203.791 48.4814,190.458 46.5,177.5C 44.3926,176.532 42.0593,176.198 39.5,176.5C 39.5,173.833 39.5,171.167 39.5,168.5C 41.7354,168.795 43.7354,168.461 45.5,167.5C 45.8333,167.5 46.1667,167.5 46.5,167.5C 47.1666,159.324 47.8333,150.99 48.5,142.5C 49.9979,140.171 51.9979,138.337 54.5,137C 60.7039,135.814 66.3706,136.981 71.5,140.5 Z"/></g>
<g><path style="opacity:1" fill="#e68b97" d="M 45.5,167.5 C 43.7354,168.461 41.7354,168.795 39.5,168.5C 39.5,171.167 39.5,173.833 39.5,176.5C 42.0593,176.198 44.3926,176.532 46.5,177.5C 43.8333,177.5 41.1667,177.5 38.5,177.5C 38.5,174.167 38.5,170.833 38.5,167.5C 40.8333,167.5 43.1667,167.5 45.5,167.5 Z"/></g>
<g><path style="opacity:1" fill="#e38594" d="M 55.5,167.5 C 55.8333,167.5 56.1667,167.5 56.5,167.5C 59.1667,167.5 61.8333,167.5 64.5,167.5C 64.5,170.833 64.5,174.167 64.5,177.5C 61.8333,177.5 59.1667,177.5 56.5,177.5C 58.6074,176.532 60.9407,176.198 63.5,176.5C 63.5,173.833 63.5,171.167 63.5,168.5C 60.6146,168.806 57.9479,168.473 55.5,167.5 Z"/></g>
<g><path style="opacity:1" fill="#ea596c" d="M 110.5,182.5 C 111.08,184.749 112.413,186.415 114.5,187.5C 115.674,188.514 116.34,189.847 116.5,191.5C 116.815,195.371 116.482,199.038 115.5,202.5C 114.94,200.199 114.44,197.866 114,195.5C 113.506,197.134 113.34,198.801 113.5,200.5C 111.446,200.365 109.779,201.032 108.5,202.5C 108.81,199.287 108.477,196.287 107.5,193.5C 103.789,185.764 97.7892,183.431 89.5,186.5C 88.7573,187.182 88.0906,187.849 87.5,188.5C 85.5,188.5 84.5,189.5 84.5,191.5C 82.2077,195.206 81.8744,199.206 83.5,203.5C 81.4894,202.583 80.4894,200.917 80.5,198.5C 81.2194,195.753 81.2194,193.086 80.5,190.5C 81.5,189.833 82.5,189.167 83.5,188.5C 81.4844,187.306 79.4844,187.306 77.5,188.5C 79.0908,185.569 81.0908,182.902 83.5,180.5C 86.5622,177.815 90.2288,176.481 94.5,176.5C 100.698,176.376 106.031,178.376 110.5,182.5 Z"/></g>
<g><path style="opacity:1" fill="#e06d7c" d="M 148.5,178.5 C 142.996,178.068 137.663,178.735 132.5,180.5C 131.584,180.457 130.917,180.124 130.5,179.5C 136.532,177.418 142.532,177.084 148.5,178.5 Z"/></g>
<g><path style="opacity:1" fill="#fac1c8" d="M 152.5,178.5 C 154.749,179.08 156.415,180.413 157.5,182.5C 157.167,182.5 156.833,182.5 156.5,182.5C 154.833,181.5 153.5,180.167 152.5,178.5 Z"/></g>
<g><path style="opacity:1" fill="#ed5468" d="M 130.5,179.5 C 130.917,180.124 131.584,180.457 132.5,180.5C 137.663,178.735 142.996,178.068 148.5,178.5C 149.833,178.5 151.167,178.5 152.5,178.5C 153.5,180.167 154.833,181.5 156.5,182.5C 156.5,184.5 156.5,186.5 156.5,188.5C 153.763,188.599 151.096,188.265 148.5,187.5C 147.833,187.5 147.167,187.5 146.5,187.5C 143.36,186.359 140.027,186.192 136.5,187C 135.944,187.383 135.611,187.883 135.5,188.5C 133.5,188.5 132.5,189.5 132.5,191.5C 132.167,191.5 131.833,191.5 131.5,191.5C 130.507,200.318 130.173,209.318 130.5,218.5C 128.208,218.756 126.041,218.423 124,217.5C 123.333,204.5 123.333,191.5 124,178.5C 125.401,176.808 127.234,176.141 129.5,176.5C 129.263,177.791 129.596,178.791 130.5,179.5 Z"/></g>
<g><path style="opacity:1" fill="#e48893" d="M 110.5,182.5 C 112.587,183.585 113.92,185.251 114.5,187.5C 112.413,186.415 111.08,184.749 110.5,182.5 Z"/></g>
<g><path style="opacity:1" fill="#fef8f9" d="M 107.5,193.5 C 107.693,197.566 107.36,201.566 106.5,205.5C 103.94,207.273 101.607,209.273 99.5,211.5C 96.8333,211.5 94.1667,211.5 91.5,211.5C 88.5319,209.86 85.8652,207.86 83.5,205.5C 83.5,204.833 83.5,204.167 83.5,203.5C 81.8744,199.206 82.2077,195.206 84.5,191.5C 85.8333,190.833 86.8333,189.833 87.5,188.5C 88.0906,187.849 88.7573,187.182 89.5,186.5C 97.7892,183.431 103.789,185.764 107.5,193.5 Z"/></g>
<g><path style="opacity:1" fill="#febfc8" d="M 146.5,187.5 C 142.766,187.323 139.099,187.656 135.5,188.5C 135.611,187.883 135.944,187.383 136.5,187C 140.027,186.192 143.36,186.359 146.5,187.5 Z"/></g>
<g><path style="opacity:1" fill="#e07180" d="M 156.5,182.5 C 156.833,182.5 157.167,182.5 157.5,182.5C 160.245,189.59 157.912,192.09 150.5,190C 149.619,189.292 148.953,188.458 148.5,187.5C 151.096,188.265 153.763,188.599 156.5,188.5C 156.5,186.5 156.5,184.5 156.5,182.5 Z"/></g>
<g><path style="opacity:1" fill="#e16d7b" d="M 46.5,177.5 C 48.4814,190.458 49.1481,203.791 48.5,217.5C 50.5,217.5 52.5,217.5 54.5,217.5C 53.8519,203.791 54.5186,190.458 56.5,177.5C 56.6666,190.837 56.4999,204.171 56,217.5C 54.8197,218.684 53.3197,219.351 51.5,219.5C 49.6803,219.351 48.1803,218.684 47,217.5C 46.5001,204.171 46.3334,190.837 46.5,177.5 Z"/></g>
<g><path style="opacity:1" fill="#fbbbc5" d="M 87.5,188.5 C 86.8333,189.833 85.8333,190.833 84.5,191.5C 84.5,189.5 85.5,188.5 87.5,188.5 Z"/></g>
<g><path style="opacity:1" fill="#f4a5ac" d="M 135.5,188.5 C 134.833,189.833 133.833,190.833 132.5,191.5C 132.5,189.5 133.5,188.5 135.5,188.5 Z"/></g>
<g><path style="opacity:1" fill="#e57283" d="M 130.5,179.5 C 129.596,178.791 129.263,177.791 129.5,176.5C 127.234,176.141 125.401,176.808 124,178.5C 123.333,191.5 123.333,204.5 124,217.5C 126.041,218.423 128.208,218.756 130.5,218.5C 130.173,209.318 130.507,200.318 131.5,191.5C 131.5,200.833 131.5,210.167 131.5,219.5C 128.167,219.5 124.833,219.5 121.5,219.5C 121.5,204.833 121.5,190.167 121.5,175.5C 124.5,175.5 127.5,175.5 130.5,175.5C 130.5,176.833 130.5,178.167 130.5,179.5 Z"/></g>
<g><path style="opacity:1" fill="#fab4bd" d="M 107.5,193.5 C 108.477,196.287 108.81,199.287 108.5,202.5C 108.573,204.027 107.906,205.027 106.5,205.5C 107.36,201.566 107.693,197.566 107.5,193.5 Z"/></g>
<g><path style="opacity:1" fill="#a9a9a9" d="M 406.5,137.5 C 407.499,213.332 407.833,289.332 407.5,365.5C 398.983,365.826 390.65,365.493 382.5,364.5C 390.5,364.5 398.5,364.5 406.5,364.5C 406.5,288.833 406.5,213.167 406.5,137.5 Z"/></g>
<g><path style="opacity:1" fill="#e37785" d="M 83.5,180.5 C 81.0908,182.902 79.0908,185.569 77.5,188.5C 74.9291,195.455 74.9291,202.455 77.5,209.5C 75.8361,208.257 74.6695,206.59 74,204.5C 72.6694,197.751 73.6694,191.418 77,185.5C 78.7772,183.21 80.9438,181.543 83.5,180.5 Z"/></g>
<g><path style="opacity:1" fill="#ee5469" d="M 83.5,203.5 C 83.5,204.167 83.5,204.833 83.5,205.5C 83.5,206.833 83.5,208.167 83.5,209.5C 86.1667,210.167 88.8333,210.833 91.5,211.5C 94.1667,211.5 96.8333,211.5 99.5,211.5C 103.656,211.68 105.99,209.68 106.5,205.5C 107.906,205.027 108.573,204.027 108.5,202.5C 109.779,201.032 111.446,200.365 113.5,200.5C 113.34,198.801 113.506,197.134 114,195.5C 114.44,197.866 114.94,200.199 115.5,202.5C 115.427,206.181 113.76,208.514 110.5,209.5C 110.762,210.978 110.429,212.311 109.5,213.5C 107.032,214.803 104.699,216.303 102.5,218C 96.0325,218.792 89.6992,218.292 83.5,216.5C 80.3481,215.221 78.3481,212.888 77.5,209.5C 74.9291,202.455 74.9291,195.455 77.5,188.5C 79.4844,187.306 81.4844,187.306 83.5,188.5C 82.5,189.167 81.5,189.833 80.5,190.5C 81.2194,193.086 81.2194,195.753 80.5,198.5C 80.4894,200.917 81.4894,202.583 83.5,203.5 Z"/></g>
<g><path style="opacity:1" fill="#e47383" d="M 106.5,205.5 C 105.99,209.68 103.656,211.68 99.5,211.5C 101.607,209.273 103.94,207.273 106.5,205.5 Z"/></g>
<g><path style="opacity:1" fill="#e2687a" d="M 83.5,205.5 C 85.8652,207.86 88.5319,209.86 91.5,211.5C 88.8333,210.833 86.1667,210.167 83.5,209.5C 83.5,208.167 83.5,206.833 83.5,205.5 Z"/></g>
<g><path style="opacity:1" fill="#de6c7b" d="M 116.5,191.5 C 119.457,201.629 116.79,209.963 108.5,216.5C 106.326,216.75 104.659,217.75 103.5,219.5C 97.8236,219.666 92.1569,219.499 86.5,219C 85.4293,218.148 84.4293,217.315 83.5,216.5C 89.6992,218.292 96.0325,218.792 102.5,218C 104.699,216.303 107.032,214.803 109.5,213.5C 110.429,212.311 110.762,210.978 110.5,209.5C 113.76,208.514 115.427,206.181 115.5,202.5C 116.482,199.038 116.815,195.371 116.5,191.5 Z"/></g>
<g><path style="opacity:1" fill="#fed3da" d="M 108.5,216.5 C 107.514,218.408 105.848,219.408 103.5,219.5C 104.659,217.75 106.326,216.75 108.5,216.5 Z"/></g>
<g><path style="opacity:1" fill="#969696" d="M 499.5,229.5 C 489.468,229.271 479.468,229.604 469.5,230.5C 469.918,229.778 470.584,229.278 471.5,229C 481.009,228.176 490.343,228.342 499.5,229.5 Z"/></g>
<g><path style="opacity:1" fill="#696969" d="M 160.5,265.5 C 160.462,268.181 161.129,270.681 162.5,273C 161.944,274.011 161.278,274.844 160.5,275.5C 152.35,276.493 144.017,276.826 135.5,276.5C 135.071,272.976 133.571,269.976 131,267.5C 119.945,255.891 106.445,251.724 90.5,255C 64.1881,263.143 53.3548,280.976 58,308.5C 65.5199,336.004 83.3532,347.171 111.5,342C 122.376,339.824 131.71,334.824 139.5,327C 146.833,326.333 154.167,326.333 161.5,327C 162.327,333.527 160.494,339.36 156,344.5C 147.029,353.472 136.529,359.972 124.5,364C 109.5,364.667 94.5,364.667 79.5,364C 57.404,357.57 42.904,343.404 36,321.5C 28.4754,295.808 32.642,272.308 48.5,251C 71.2044,228.742 97.5377,223.076 127.5,234C 141.936,240.937 152.936,251.437 160.5,265.5 Z"/></g>
<g><path style="opacity:1" fill="#696969" d="M 499.5,229.5 C 525.655,236 543.655,251.666 553.5,276.5C 553.41,279.152 554.076,281.485 555.5,283.5C 557.043,291.73 557.543,300.063 557,308.5C 556.5,309 556,309.5 555.5,310C 518.835,310.5 482.168,310.667 445.5,310.5C 449.131,326.166 458.465,336.499 473.5,341.5C 476.526,343.019 479.859,343.685 483.5,343.5C 486.025,343.497 488.359,343.163 490.5,342.5C 492.167,342.5 493.833,342.5 495.5,342.5C 499.122,342.678 502.456,342.011 505.5,340.5C 513.278,338.152 519.945,334.152 525.5,328.5C 526.289,328.217 526.956,327.717 527.5,327C 534.492,326.5 541.492,326.334 548.5,326.5C 549.588,329.444 549.588,332.444 548.5,335.5C 545.525,341.986 541.192,347.486 535.5,352C 528.058,357.054 520.058,361.054 511.5,364C 496.833,364.667 482.167,364.667 467.5,364C 465.942,363.79 464.609,363.29 463.5,362.5C 461.898,360.926 459.898,360.259 457.5,360.5C 451.242,358.371 445.575,355.205 440.5,351C 426.136,335.441 419.136,316.941 419.5,295.5C 419.689,267.752 432.022,247.752 456.5,235.5C 459.397,234.871 462.064,233.871 464.5,232.5C 466.167,231.833 467.833,231.167 469.5,230.5C 479.468,229.604 489.468,229.271 499.5,229.5 Z"/></g>
<g><path style="opacity:1" fill="#fed1d8" d="M 245.5,228.5 C 239.974,228.179 234.64,228.512 229.5,229.5C 228.514,233.97 228.181,238.637 228.5,243.5C 227.176,238.433 227.176,233.266 228.5,228C 234.349,227.182 240.015,227.348 245.5,228.5 Z"/></g>
<g><path style="opacity:1" fill="#ec919e" d="M 183.5,231.5 C 183.5,232.167 183.5,232.833 183.5,233.5C 182.167,234.5 180.833,235.5 179.5,236.5C 180.08,234.251 181.413,232.585 183.5,231.5 Z"/></g>
<g><path style="opacity:1" fill="#e06f80" d="M 204.5,243.5 C 200.5,243.5 196.5,243.5 192.5,243.5C 195.962,242.518 199.629,242.185 203.5,242.5C 203.5,238.5 203.5,234.5 203.5,230.5C 199.99,230.332 196.49,229.999 193,229.5C 189.752,229.94 186.585,230.607 183.5,231.5C 184.058,230.21 185.058,229.377 186.5,229C 192.825,228.5 199.158,228.334 205.5,228.5C 205.821,233.695 205.487,238.695 204.5,243.5 Z"/></g>
<g><path style="opacity:1" fill="#9f9f9f" d="M 464.5,232.5 C 462.064,233.871 459.397,234.871 456.5,235.5C 458.617,233.345 461.284,232.345 464.5,232.5 Z"/></g>
<g><path style="opacity:1" fill="#df5f72" d="M 245.5,228.5 C 246.167,229.167 246.833,229.833 247.5,230.5C 241.833,230.5 236.167,230.5 230.5,230.5C 230.5,234.167 230.5,237.833 230.5,241.5C 234.078,241.549 237.411,242.215 240.5,243.5C 236.833,243.5 233.167,243.5 229.5,243.5C 229.5,238.833 229.5,234.167 229.5,229.5C 234.64,228.512 239.974,228.179 245.5,228.5 Z"/></g>
<g><path style="opacity:1" fill="#f4aab5" d="M 192.5,243.5 C 196.5,243.5 200.5,243.5 204.5,243.5C 200.979,244.166 197.313,244.833 193.5,245.5C 193.137,246.183 192.804,246.85 192.5,247.5C 192.167,247.5 191.833,247.5 191.5,247.5C 191.833,246.167 192.167,244.833 192.5,243.5 Z"/></g>
<g><path style="opacity:1" fill="#ed98a3" d="M 229.5,229.5 C 229.5,234.167 229.5,238.833 229.5,243.5C 233.167,243.5 236.833,243.5 240.5,243.5C 240.5,243.833 240.5,244.167 240.5,244.5C 236.298,244.817 232.298,244.483 228.5,243.5C 228.181,238.637 228.514,233.97 229.5,229.5 Z"/></g>
<g><path style="opacity:1" fill="#f9b2bc" d="M 255.5,239.5 C 256.222,239.918 256.722,240.584 257,241.5C 257.5,255.829 257.667,270.163 257.5,284.5C 256.769,269.648 256.102,254.648 255.5,239.5 Z"/></g>
<g><path style="opacity:1" fill="#e75f71" d="M 248.5,230.5 C 251.973,232.637 254.306,235.637 255.5,239.5C 256.102,254.648 256.769,269.648 257.5,284.5C 257.5,285.5 257.5,286.5 257.5,287.5C 256.85,287.196 256.183,286.863 255.5,286.5C 254.667,270.844 254.167,255.177 254,239.5C 251.428,236.803 249.595,233.803 248.5,230.5 Z"/></g>
<g><path style="opacity:1" fill="#feb5c1" d="M 240.5,244.5 C 241.117,244.611 241.617,244.944 242,245.5C 242.182,261.241 242.682,276.907 243.5,292.5C 243.5,293.5 243.5,294.5 243.5,295.5C 242.732,294.737 242.232,293.737 242,292.5C 241.804,276.456 241.304,260.456 240.5,244.5 Z"/></g>
<g><path style="opacity:1" fill="#d3d3d3" d="M 355.5,255.5 C 346.825,254.249 338.159,254.249 329.5,255.5C 330.263,254.732 331.263,254.232 332.5,254C 335.667,253.833 338.833,253.667 342,253.5C 346.772,253.308 351.272,253.975 355.5,255.5 Z"/></g>
<g><path style="opacity:1" fill="#fdfdfd" d="M 355.5,255.5 C 368.329,259.826 377.162,268.493 382,281.5C 382.667,295.5 382.667,309.5 382,323.5C 379.192,330.308 374.359,335.141 367.5,338C 355.806,342.431 343.806,343.931 331.5,342.5C 329.898,340.926 327.898,340.259 325.5,340.5C 315.008,336.845 307.508,329.845 303,319.5C 298.517,308.534 297.35,297.2 299.5,285.5C 301.915,282.66 303.248,279.327 303.5,275.5C 304.514,272.311 306.18,269.478 308.5,267C 312.549,263.648 316.882,260.815 321.5,258.5C 323.967,258.245 325.967,257.245 327.5,255.5C 328.167,255.5 328.833,255.5 329.5,255.5C 338.159,254.249 346.825,254.249 355.5,255.5 Z"/></g>
<g><path style="opacity:1" fill="#fcfcfc" d="M 447.5,279.5 C 449.065,277.491 450.065,275.157 450.5,272.5C 461.495,256.992 476.495,251.158 495.5,255C 510.442,258.264 520.942,267.097 527,281.5C 527.667,282.5 527.667,283.5 527,284.5C 499.907,285.495 472.741,285.828 445.5,285.5C 445.259,283.102 445.926,281.102 447.5,279.5 Z"/></g>
<g><path style="opacity:1" fill="#fedae1" d="M 177.5,241.5 C 176.896,256.981 176.229,272.315 175.5,287.5C 175.333,273.163 175.5,258.829 176,244.5C 176.232,243.263 176.732,242.263 177.5,241.5 Z"/></g>
<g><path style="opacity:1" fill="#bababa" d="M 327.5,255.5 C 325.967,257.245 323.967,258.245 321.5,258.5C 323.033,256.755 325.033,255.755 327.5,255.5 Z"/></g>
<g><path style="opacity:1" fill="#fee7ed" d="M 191.5,247.5 C 191.833,247.5 192.167,247.5 192.5,247.5C 192.667,262.837 192.5,278.17 192,293.5C 191.292,294.381 190.458,295.047 189.5,295.5C 189.461,294.244 189.961,293.244 191,292.5C 191.5,277.504 191.667,262.504 191.5,247.5 Z"/></g>
<g><path style="opacity:1" fill="#959595" d="M 160.5,265.5 C 162.976,268.288 163.976,271.622 163.5,275.5C 162.5,275.5 161.5,275.5 160.5,275.5C 161.278,274.844 161.944,274.011 162.5,273C 161.129,270.681 160.462,268.181 160.5,265.5 Z"/></g>
<g><path style="opacity:1" fill="#df6978" d="M 183.5,233.5 C 182.213,235.805 180.88,238.138 179.5,240.5C 178.667,256.156 178.167,271.823 178,287.5C 175.396,290.698 172.063,292.698 168,293.5C 167.333,297.167 167.333,300.833 168,304.5C 170.069,305.264 172.236,305.764 174.5,306C 175.056,306.383 175.389,306.883 175.5,307.5C 174.833,307.5 174.167,307.5 173.5,307.5C 171.444,306.784 169.277,306.117 167,305.5C 166.501,300.845 166.334,296.179 166.5,291.5C 169.906,291.097 172.906,289.764 175.5,287.5C 176.229,272.315 176.896,256.981 177.5,241.5C 178.167,239.833 178.833,238.167 179.5,236.5C 180.833,235.5 182.167,234.5 183.5,233.5 Z"/></g>
<g><path style="opacity:1" fill="#b9b9b9" d="M 450.5,272.5 C 450.065,275.157 449.065,277.491 447.5,279.5C 447.552,276.654 448.552,274.32 450.5,272.5 Z"/></g>
<g><path style="opacity:1" fill="#c5c5c5" d="M 303.5,275.5 C 303.248,279.327 301.915,282.66 299.5,285.5C 299.752,281.673 301.085,278.34 303.5,275.5 Z"/></g>
<g><path style="opacity:1" fill="#9d9d9d" d="M 553.5,276.5 C 554.924,278.515 555.59,280.848 555.5,283.5C 554.076,281.485 553.41,279.152 553.5,276.5 Z"/></g>
<g><path style="opacity:1" fill="#ee5469" d="M 247.5,230.5 C 247.833,230.5 248.167,230.5 248.5,230.5C 249.595,233.803 251.428,236.803 254,239.5C 254.167,255.177 254.667,270.844 255.5,286.5C 256.183,286.863 256.85,287.196 257.5,287.5C 257.511,289.017 258.177,290.184 259.5,291C 261.556,291.311 263.556,291.811 265.5,292.5C 266.492,296.783 266.826,301.116 266.5,305.5C 263.615,305.194 260.948,305.527 258.5,306.5C 257.883,306.611 257.383,306.944 257,307.5C 256.5,323.83 256.333,340.163 256.5,356.5C 256.385,358.947 255.385,360.947 253.5,362.5C 245.815,365.154 237.815,366.154 229.5,365.5C 229.5,361.167 229.5,356.833 229.5,352.5C 233.702,352.817 237.702,352.483 241.5,351.5C 242.167,351.5 242.5,351.167 242.5,350.5C 243.29,349.391 243.79,348.058 244,346.5C 244.5,332.171 244.667,317.837 244.5,303.5C 247.437,299.523 247.104,295.857 243.5,292.5C 242.682,276.907 242.182,261.241 242,245.5C 241.617,244.944 241.117,244.611 240.5,244.5C 240.5,244.167 240.5,243.833 240.5,243.5C 237.411,242.215 234.078,241.549 230.5,241.5C 230.5,237.833 230.5,234.167 230.5,230.5C 236.167,230.5 241.833,230.5 247.5,230.5 Z"/></g>
<g><path style="opacity:1" fill="#f4a1ad" d="M 166.5,291.5 C 166.334,296.179 166.501,300.845 167,305.5C 169.277,306.117 171.444,306.784 173.5,307.5C 170.881,307.768 168.381,307.435 166,306.5C 165.184,301.316 165.35,296.316 166.5,291.5 Z"/></g>
<g><path style="opacity:1" fill="#e67b8b" d="M 243.5,292.5 C 247.104,295.857 247.437,299.523 244.5,303.5C 244.433,301.599 244.767,299.766 245.5,298C 245.361,296.699 244.695,295.866 243.5,295.5C 243.5,294.5 243.5,293.5 243.5,292.5 Z"/></g>
<g><path style="opacity:1" fill="#fed0d8" d="M 189.5,295.5 C 189.5,297.833 189.5,300.167 189.5,302.5C 186.833,300.167 186.833,297.833 189.5,295.5 Z"/></g>
<g><path style="opacity:1" fill="#df7282" d="M 257.5,287.5 C 260.192,289.822 263.359,291.155 267,291.5C 267.816,296.684 267.65,301.684 266.5,306.5C 263.833,306.5 261.167,306.5 258.5,306.5C 260.948,305.527 263.615,305.194 266.5,305.5C 266.826,301.116 266.492,296.783 265.5,292.5C 263.556,291.811 261.556,291.311 259.5,291C 258.177,290.184 257.511,289.017 257.5,287.5 Z"/></g>
<g><path style="opacity:1" fill="#ee5468" d="M 192.5,243.5 C 192.167,244.833 191.833,246.167 191.5,247.5C 191.667,262.504 191.5,277.504 191,292.5C 189.961,293.244 189.461,294.244 189.5,295.5C 186.833,297.833 186.833,300.167 189.5,302.5C 189.5,302.833 189.5,303.167 189.5,303.5C 189.605,313.348 189.272,323.181 188.5,333C 189.103,339.513 189.77,346.013 190.5,352.5C 194.5,352.5 198.5,352.5 202.5,352.5C 202.833,352.5 203.167,352.5 203.5,352.5C 203.5,356.5 203.5,360.5 203.5,364.5C 196.833,364.5 190.167,364.5 183.5,364.5C 181.512,362.535 180.012,360.202 179,357.5C 178.831,340.995 178.331,324.662 177.5,308.5C 177.158,307.662 176.492,307.328 175.5,307.5C 175.389,306.883 175.056,306.383 174.5,306C 172.236,305.764 170.069,305.264 168,304.5C 167.333,300.833 167.333,297.167 168,293.5C 172.063,292.698 175.396,290.698 178,287.5C 178.167,271.823 178.667,256.156 179.5,240.5C 180.88,238.138 182.213,235.805 183.5,233.5C 183.5,232.833 183.5,232.167 183.5,231.5C 186.585,230.607 189.752,229.94 193,229.5C 196.49,229.999 199.99,230.332 203.5,230.5C 203.5,234.5 203.5,238.5 203.5,242.5C 199.629,242.185 195.962,242.518 192.5,243.5 Z"/></g>
<g><path style="opacity:1" fill="#feb8c4" d="M 258.5,306.5 C 261.167,306.5 263.833,306.5 266.5,306.5C 263.772,307.205 260.939,307.872 258,308.5C 257.831,324.672 257.331,340.672 256.5,356.5C 256.333,340.163 256.5,323.83 257,307.5C 257.383,306.944 257.883,306.611 258.5,306.5 Z"/></g>
<g><path style="opacity:1" fill="#cccccc" d="M 548.5,326.5 C 541.492,326.334 534.492,326.5 527.5,327C 526.956,327.717 526.289,328.217 525.5,328.5C 525.414,327.504 525.748,326.671 526.5,326C 534.012,325.178 541.345,325.345 548.5,326.5 Z"/></g>
<g><path style="opacity:1" fill="#afafaf" d="M 548.5,326.5 C 549.725,327.152 550.392,328.319 550.5,330C 550.607,332.221 549.94,334.054 548.5,335.5C 549.588,332.444 549.588,329.444 548.5,326.5 Z"/></g>
<g><path style="opacity:1" fill="#e898a3" d="M 175.5,307.5 C 176.492,307.328 177.158,307.662 177.5,308.5C 177.5,325.167 177.5,341.833 177.5,358.5C 176.82,341.598 176.153,324.598 175.5,307.5 Z"/></g>
<g><path style="opacity:1" fill="#de707f" d="M 189.5,303.5 C 190.282,319.009 190.949,334.675 191.5,350.5C 195.167,351.167 198.833,351.833 202.5,352.5C 198.5,352.5 194.5,352.5 190.5,352.5C 189.77,346.013 189.103,339.513 188.5,333C 189.272,323.181 189.605,313.348 189.5,303.5 Z"/></g>
<g><path style="opacity:1" fill="#e66b7d" d="M 244.5,303.5 C 244.667,317.837 244.5,332.171 244,346.5C 243.79,348.058 243.29,349.391 242.5,350.5C 242.5,349.167 242.5,347.833 242.5,346.5C 243.117,332.025 243.784,317.692 244.5,303.5 Z"/></g>
<g><path style="opacity:1" fill="#c6c6c6" d="M 325.5,340.5 C 327.898,340.259 329.898,340.926 331.5,342.5C 329.102,342.741 327.102,342.074 325.5,340.5 Z"/></g>
<g><path style="opacity:1" fill="#a7a7a7" d="M 505.5,340.5 C 502.456,342.011 499.122,342.678 495.5,342.5C 498.589,341.215 501.922,340.549 505.5,340.5 Z"/></g>
<g><path style="opacity:1" fill="#de6173" d="M 177.5,308.5 C 178.331,324.662 178.831,340.995 179,357.5C 180.012,360.202 181.512,362.535 183.5,364.5C 180.522,363.522 178.522,361.522 177.5,358.5C 177.5,341.833 177.5,325.167 177.5,308.5 Z"/></g>
<g><path style="opacity:1" fill="#bcbcbc" d="M 473.5,341.5 C 479.13,342.292 484.797,342.625 490.5,342.5C 488.359,343.163 486.025,343.497 483.5,343.5C 479.859,343.685 476.526,343.019 473.5,341.5 Z"/></g>
<g><path style="opacity:1" fill="#fec5cf" d="M 242.5,346.5 C 242.5,347.833 242.5,349.167 242.5,350.5C 242.5,351.167 242.167,351.5 241.5,351.5C 238.167,351.5 234.833,351.5 231.5,351.5C 234.625,350.521 237.958,350.187 241.5,350.5C 241.232,348.901 241.566,347.568 242.5,346.5 Z"/></g>
<g><path style="opacity:1" fill="#f1a3ad" d="M 191.5,350.5 C 195.902,350.228 200.235,350.561 204.5,351.5C 205.494,356.456 205.827,361.456 205.5,366.5C 198.646,366.824 191.979,366.491 185.5,365.5C 191.833,365.5 198.167,365.5 204.5,365.5C 204.818,360.968 204.485,356.634 203.5,352.5C 203.167,352.5 202.833,352.5 202.5,352.5C 198.833,351.833 195.167,351.167 191.5,350.5 Z"/></g>
<g><path style="opacity:1" fill="#e07885" d="M 228.5,351.5 C 229.5,351.5 230.5,351.5 231.5,351.5C 234.833,351.5 238.167,351.5 241.5,351.5C 237.702,352.483 233.702,352.817 229.5,352.5C 229.5,356.833 229.5,361.167 229.5,365.5C 228.514,361.03 228.181,356.363 228.5,351.5 Z"/></g>
<g><path style="opacity:1" fill="#9e9e9e" d="M 457.5,360.5 C 459.898,360.259 461.898,360.926 463.5,362.5C 461.102,362.741 459.102,362.074 457.5,360.5 Z"/></g>
<g><path style="opacity:1" fill="#dd5b6e" d="M 203.5,352.5 C 204.485,356.634 204.818,360.968 204.5,365.5C 198.167,365.5 191.833,365.5 185.5,365.5C 184.508,365.672 183.842,365.338 183.5,364.5C 190.167,364.5 196.833,364.5 203.5,364.5C 203.5,360.5 203.5,356.5 203.5,352.5 Z"/></g>
<g><path style="opacity:1" fill="#e38994" d="M 253.5,362.5 C 252.738,364.262 251.404,365.262 249.5,365.5C 242.704,366.774 236.037,366.774 229.5,365.5C 237.815,366.154 245.815,365.154 253.5,362.5 Z"/></g>
<g><path style="opacity:1" fill="#fedde2" d="M 228.5,351.5 C 228.181,356.363 228.514,361.03 229.5,365.5C 236.037,366.774 242.704,366.774 249.5,365.5C 249.389,366.117 249.056,366.617 248.5,367C 241.833,367.667 235.167,367.667 228.5,367C 227.176,361.734 227.176,356.567 228.5,351.5 Z"/></g>
</svg>
